<?xml version="1.0" encoding="utf-8"?>
<!-- Generator: Adobe Illustrator 25.3.1, SVG Export Plug-In . SVG Version: 6.00 Build 0)  -->
<svg version="1.1" id="Capa_1" xmlns="http://www.w3.org/2000/svg" xmlns:xlink="http://www.w3.org/1999/xlink" x="0px" y="0px"
	 viewBox="0 0 28 28" style="enable-background:new 0 0 28 28;" xml:space="preserve">
<path fill="#04939A" d="M26.7,0.7H1.3c-0.3,0-0.6,0.3-0.6,0.6v25.5c0,0.3,0.3,0.6,0.6,0.6h25.5c0.3,0,0.6-0.3,0.6-0.6V1.3
	C27.3,0.9,27.1,0.7,26.7,0.7z M26.1,14v12.1H14H1.9V14V1.9H14h12.1V14z"/>
<path fill="#04939A" d="M14,24.6C8.2,24.6,3.4,19.8,3.4,14S8.2,3.4,14,3.4S24.6,8.2,24.6,14S19.8,24.6,14,24.6z M14,4.7c-5.1,0-9.3,4.2-9.3,9.3
	s4.2,9.3,9.3,9.3s9.3-4.2,9.3-9.3S19.1,4.7,14,4.7z"/>
</svg>
