<?xml version="1.0" encoding="utf-8"?>
<!-- Generator: Adobe Illustrator 25.3.1, SVG Export Plug-In . SVG Version: 6.00 Build 0)  -->
<svg version="1.1" id="Capa_1" xmlns="http://www.w3.org/2000/svg" xmlns:xlink="http://www.w3.org/1999/xlink" x="0px" y="0px"
	 viewBox="0 0 40 28" style="enable-background:new 0 0 40 28;" xml:space="preserve">
<g>
	<g>
		<g>
			<path fill="#04939A" d="M40,26.4l-3-22.8c-0.2-1.6-1.6-2.9-3.3-2.9H14.2c-0.5,0-0.8,0.4-0.8,0.8s0.4,0.8,0.8,0.8h19.5c0.8,0,1.5,0.6,1.7,1.4
				l1.1,8.6H14.2C6.4,12.3,0,18.7,0,26.5c0,0.5,0.4,0.8,0.8,0.8h38.3c0.2,0,0.5-0.1,0.6-0.3C40,26.9,40,26.6,40,26.4z M1.7,25.7
				C2.1,19.2,7.6,14,14.2,14h22.5l1.6,11.7H1.7z"/>
			<circle fill="#04939A" cx="20" cy="19.8" r="1.7"/>
		</g>
	</g>
</g>
</svg>
