<?xml version="1.0" encoding="utf-8"?>
<!-- Generator: Adobe Illustrator 25.3.1, SVG Export Plug-In . SVG Version: 6.00 Build 0)  -->
<svg version="1.1" id="Capa_1" xmlns="http://www.w3.org/2000/svg" xmlns:xlink="http://www.w3.org/1999/xlink" x="0px" y="0px"
	 viewBox="0 0 40 28" style="enable-background:new 0 0 40 28;" xml:space="preserve">
<g>
	<g>
		<path fill="#04939A" d="M39.3,0.7c-0.4-0.1-0.9,0.2-1,0.7l-1.1,5.7c-0.5-0.2-0.9-0.6-1.3-1.1C35.1,5.1,34.1,4,32.2,4c-1.9,0-2.9,1.1-3.7,1.9
			c-0.7,0.8-1.3,1.4-2.4,1.4c-1.2,0-1.7-0.6-2.4-1.4C22.9,5.1,21.9,4,20,4c-1.9,0-2.9,1.1-3.7,1.9c-0.7,0.8-1.3,1.4-2.4,1.4
			c-1.2,0-1.7-0.6-2.4-1.4C10.7,5.1,9.7,4,7.8,4S4.9,5.1,4.1,5.9C3.7,6.4,3.3,6.8,2.8,7.1L1.7,1.3c-0.1-0.5-0.6-0.7-1-0.7
			C0.2,0.8-0.1,1.2,0,1.7l4.6,23c0.3,1.6,1.7,2.7,3.3,2.7h24.2c1.6,0,3-1.1,3.3-2.7l4.6-23C40.1,1.2,39.8,0.8,39.3,0.7z M33.8,24.3
			c-0.2,0.8-0.8,1.3-1.6,1.3H7.9c-0.8,0-1.5-0.6-1.6-1.3L3.1,8.7c1-0.4,1.6-1,2.2-1.7c0.7-0.8,1.3-1.4,2.4-1.4
			c1.2,0,1.7,0.6,2.4,1.4C11,7.9,12,9,13.9,9s2.9-1.1,3.7-1.9c0.7-0.8,1.3-1.4,2.4-1.4c1.2,0,1.7,0.6,2.4,1.4
			C23.2,7.9,24.2,9,26.1,9C28,9,29,7.9,29.8,7.1c0.7-0.8,1.3-1.4,2.4-1.4c1.2,0,1.7,0.6,2.4,1.4c0.6,0.6,1.2,1.3,2.2,1.7L33.8,24.3z
			"/>
	</g>
</g>
</svg>
