<?xml version="1.0" encoding="iso-8859-1"?>
<!-- Generator: Adobe Illustrator 19.0.0, SVG Export Plug-In . SVG Version: 6.00 Build 0)  -->
<svg version="1.1" id="Capa_1" xmlns="http://www.w3.org/2000/svg" xmlns:xlink="http://www.w3.org/1999/xlink" x="0px" y="0px"
	 viewBox="0 0 512 512" style="enable-background:new 0 0 512 512;" xml:space="preserve">
<g>
	<g>
		<path d="M444.119,82.965l64.756-64.757c4.167-4.167,4.167-10.917,0-15.083c-4.167-4.167-10.917-4.167-15.083,0l-64.757,64.757
			C383.417,25.887,322.75,0,256,0S128.583,25.887,82.965,67.882L18.208,3.125c-4.167-4.167-10.917-4.167-15.083,0
			s-4.167,10.917,0,15.083l64.757,64.757C25.887,128.585,0,189.253,0,256s25.887,127.415,67.882,173.035L3.125,493.792
			c-4.167,4.167-4.167,10.917,0,15.083C5.208,510.958,7.938,512,10.667,512c2.729,0,5.458-1.042,7.542-3.125l64.757-64.756
			C128.583,486.113,189.25,512,256,512s127.417-25.887,173.035-67.881l64.757,64.756c2.083,2.083,4.813,3.125,7.542,3.125
			c2.729,0,5.458-1.042,7.542-3.125c4.167-4.167,4.167-10.917,0-15.083l-64.756-64.757C486.113,383.415,512,322.747,512,256
			S486.113,128.585,444.119,82.965z M256,21.333c60.866,0,116.212,23.488,157.956,61.628L256,240.917L98.044,82.961
			C139.788,44.822,195.134,21.333,256,21.333z M82.961,413.956C44.822,372.212,21.333,316.866,21.333,256
			S44.822,139.788,82.961,98.044L240.917,256L82.961,413.956z M256,490.667c-60.866,0-116.212-23.488-157.956-61.628L256,271.083
			l157.956,157.956C372.212,467.178,316.866,490.667,256,490.667z M429.039,413.956L271.083,256L429.039,98.044
			c38.139,41.744,61.628,97.09,61.628,157.956S467.178,372.212,429.039,413.956z"/>
	</g>
</g>
<g>
</g>
<g>
</g>
<g>
</g>
<g>
</g>
<g>
</g>
<g>
</g>
<g>
</g>
<g>
</g>
<g>
</g>
<g>
</g>
<g>
</g>
<g>
</g>
<g>
</g>
<g>
</g>
<g>
</g>
</svg>
